<?xml version="1.0" encoding="UTF-8" standalone="no"?>
<!DOCTYPE svg PUBLIC "-//W3C//DTD SVG 1.1//EN"
 "http://www.w3.org/Graphics/SVG/1.1/DTD/svg11.dtd">
<!-- Generated by graphviz version 8.1.0 (20230707.0739)
 -->
<!-- Pages: 1 -->
<svg width="129pt" height="352pt"
 viewBox="0.00 0.00 128.66 351.66" xmlns="http://www.w3.org/2000/svg" xmlns:xlink="http://www.w3.org/1999/xlink">
<g id="graph0" class="graph" transform="scale(1 1) rotate(0) translate(4 347.66)">
<polygon fill="white" stroke="none" points="-4,4 -4,-347.66 124.66,-347.66 124.66,4 -4,4"/>
<!-- fake -->
<g id="node1" class="node">
<title>fake</title>
</g>
<g id="node2" class="node">
<title></title>
<ellipse fill="none" stroke="black" cx="47.58" cy="-252.66" rx="27" ry="18"/>
</g>
<!-- fake&#45;&gt; -->
<g id="edge1" class="edge">
<title>fake&#45;&gt;</title>
<path fill="none" stroke="black" stroke-width="2" d="M47.58,-307.47C47.58,-299.71 47.58,-290.34 47.58,-281.61"/>
<polygon fill="black" stroke="black" stroke-width="2" points="51.08,-283.69 47.58,-273.69 44.08,-283.69 51.08,-283.69"/>
</g>
<!-- a -->
<g id="node4" class="node">
<title>a</title>
<ellipse fill="none" stroke="black" cx="47.58" cy="-164.91" rx="27" ry="18"/>
<text text-anchor="middle" x="47.58" y="-159.48" font-family="Times New Roman,serif" font-size="14.00">a</text>
</g>
<!-- &#45;&gt;a -->
<g id="edge2" class="edge">
<title>&#45;&gt;a</title>
<path fill="none" stroke="black" d="M47.58,-234.31C47.58,-222.8 47.58,-207.44 47.58,-194.19"/>
<polygon fill="black" stroke="black" points="51.08,-194.23 47.58,-184.23 44.08,-194.23 51.08,-194.23"/>
<text text-anchor="middle" x="50.58" y="-203.36" font-family="Times New Roman,serif" font-size="14.00">a</text>
</g>
<!-- aabbbbb -->
<g id="node3" class="node">
<title>aabbbbb</title>
<ellipse fill="none" stroke="black" cx="47.58" cy="-47.58" rx="43.58" ry="43.58"/>
<ellipse fill="none" stroke="black" cx="47.58" cy="-47.58" rx="47.58" ry="47.58"/>
<text text-anchor="middle" x="47.58" y="-42.15" font-family="Times New Roman,serif" font-size="14.00">aabbbbb</text>
</g>
<!-- aabbbbb&#45;&gt;aabbbbb -->
<g id="edge4" class="edge">
<title>aabbbbb&#45;&gt;aabbbbb</title>
<path fill="none" stroke="black" d="M93.55,-61.14C104.79,-60.13 113.16,-55.61 113.16,-47.58 113.16,-42.31 109.55,-38.55 103.9,-36.3"/>
<polygon fill="black" stroke="black" points="105.06,-32.76 94.55,-34.02 103.56,-39.59 105.06,-32.76"/>
<text text-anchor="middle" x="116.91" y="-42.15" font-family="Times New Roman,serif" font-size="14.00">b</text>
</g>
<!-- a&#45;&gt;aabbbbb -->
<g id="edge3" class="edge">
<title>a&#45;&gt;aabbbbb</title>
<path fill="none" stroke="black" d="M47.58,-146.89C47.58,-136 47.58,-121.17 47.58,-106.34"/>
<polygon fill="black" stroke="black" points="51.08,-106.59 47.58,-96.59 44.08,-106.59 51.08,-106.59"/>
<text text-anchor="middle" x="50.58" y="-115.61" font-family="Times New Roman,serif" font-size="14.00">a</text>
</g>
</g>
</svg>
