<?xml version="1.0" encoding="UTF-8" standalone="no"?>
<!DOCTYPE svg PUBLIC "-//W3C//DTD SVG 1.1//EN"
 "http://www.w3.org/Graphics/SVG/1.1/DTD/svg11.dtd">
<!-- Generated by graphviz version 8.1.0 (20230707.0739)
 -->
<!-- Pages: 1 -->
<svg width="367pt" height="125pt"
 viewBox="0.00 0.00 366.75 125.00" xmlns="http://www.w3.org/2000/svg" xmlns:xlink="http://www.w3.org/1999/xlink">
<g id="graph0" class="graph" transform="scale(1 1) rotate(0) translate(4 121)">
<polygon fill="white" stroke="none" points="-4,4 -4,-121 362.75,-121 362.75,4 -4,4"/>
<!-- fake -->
<g id="node1" class="node">
<title>fake</title>
</g>
<g id="node2" class="node">
<title></title>
<ellipse fill="none" stroke="black" cx="27" cy="-22" rx="18" ry="18"/>
<ellipse fill="none" stroke="black" cx="27" cy="-22" rx="22" ry="22"/>
</g>
<!-- fake&#45;&gt; -->
<g id="edge1" class="edge">
<title>fake&#45;&gt;</title>
<path fill="none" stroke="black" stroke-width="2" d="M27,-80.6C27,-73 27,-63.82 27,-55.06"/>
<polygon fill="black" stroke="black" stroke-width="2" points="30.5,-57.32 27,-47.32 23.5,-57.32 30.5,-57.32"/>
</g>
<!-- &#45;&gt; -->
<g id="edge2" class="edge">
<title>&#45;&gt;</title>
<path fill="none" stroke="black" d="M49.21,-23.48C58.8,-23.6 67,-23.11 67,-22 67,-21.36 64.26,-20.92 60.09,-20.69"/>
<polygon fill="black" stroke="black" points="60.27,-17.18 50.21,-20.52 60.15,-24.18 60.27,-17.18"/>
<text text-anchor="middle" x="70.38" y="-16.57" font-family="Times New Roman,serif" font-size="14.00">h</text>
</g>
<!-- &#45;&gt; -->
<g id="edge3" class="edge">
<title>&#45;&gt;</title>
<path fill="none" stroke="black" d="M49.32,-24.6C66.93,-25.6 85,-24.73 85,-22 85,-19.82 73.53,-18.83 59.95,-19.02"/>
<polygon fill="black" stroke="black" points="60.19,-15.55 50.32,-19.4 60.44,-22.54 60.19,-15.55"/>
<text text-anchor="middle" x="88" y="-16.57" font-family="Times New Roman,serif" font-size="14.00">e</text>
</g>
<!-- &#45;&gt; -->
<g id="edge4" class="edge">
<title>&#45;&gt;</title>
<path fill="none" stroke="black" d="M49.17,-25.34C74.2,-27.64 103,-26.52 103,-22 103,-18.11 81.73,-16.74 59.87,-17.89"/>
<polygon fill="black" stroke="black" points="59.9,-14.45 50.17,-18.66 60.4,-21.44 59.9,-14.45"/>
<text text-anchor="middle" x="104.5" y="-16.57" font-family="Times New Roman,serif" font-size="14.00">l</text>
</g>
<!-- &#45;&gt; -->
<g id="edge5" class="edge">
<title>&#45;&gt;</title>
<path fill="none" stroke="black" d="M48.71,-25.83C80.81,-29.68 121,-28.41 121,-22 121,-16.29 89.12,-14.66 59.47,-17.09"/>
<polygon fill="black" stroke="black" points="59.31,-13.69 49.71,-18.17 60.01,-20.65 59.31,-13.69"/>
<text text-anchor="middle" x="124.75" y="-16.57" font-family="Times New Roman,serif" font-size="14.00">o</text>
</g>
<!-- &#45;&gt; -->
<g id="edge6" class="edge">
<title>&#45;&gt;</title>
<path fill="none" stroke="black" d="M48.99,-26.27C87.79,-31.7 139,-30.28 139,-22 139,-14.46 96.58,-12.61 59.7,-16.43"/>
<polygon fill="black" stroke="black" points="59.5,-13.05 49.99,-17.73 60.34,-20 59.5,-13.05"/>
<text text-anchor="middle" x="141.25" y="-16.57" font-family="Times New Roman,serif" font-size="14.00">!</text>
</g>
<!-- &#45;&gt; -->
<g id="edge7" class="edge">
<title>&#45;&gt;</title>
<path fill="none" stroke="black" d="M48.74,-26.55C94.15,-33.74 157,-32.22 157,-22 157,-12.56 103.36,-10.55 59.38,-15.96"/>
<polygon fill="black" stroke="black" points="59.15,-12.6 49.74,-17.45 60.12,-19.53 59.15,-12.6"/>
<text text-anchor="middle" x="158.88" y="-16.57" font-family="Times New Roman,serif" font-size="14.00"> </text>
</g>
<!-- &#45;&gt; -->
<g id="edge8" class="edge">
<title>&#45;&gt;</title>
<path fill="none" stroke="black" d="M48.92,-26.84C100.8,-35.75 175,-34.14 175,-22 175,-10.67 110.33,-8.51 59.52,-15.53"/>
<polygon fill="black" stroke="black" points="59.27,-12.18 49.92,-17.16 60.34,-19.1 59.27,-12.18"/>
<text text-anchor="middle" x="178" y="-16.57" font-family="Times New Roman,serif" font-size="14.00">a</text>
</g>
<!-- &#45;&gt; -->
<g id="edge9" class="edge">
<title>&#45;&gt;</title>
<path fill="none" stroke="black" d="M48.85,-27.04C107.13,-37.77 193,-36.09 193,-22 193,-8.73 116.9,-6.47 59.36,-15.2"/>
<polygon fill="black" stroke="black" points="59.14,-11.86 49.85,-16.96 60.29,-18.76 59.14,-11.86"/>
<text text-anchor="middle" x="195.25" y="-16.57" font-family="Times New Roman,serif" font-size="14.00">r</text>
</g>
<!-- &#45;&gt; -->
<g id="edge10" class="edge">
<title>&#45;&gt;</title>
<path fill="none" stroke="black" d="M48.66,-27.18C113.27,-39.79 211,-38.07 211,-22 211,-6.78 123.31,-4.43 59.14,-14.95"/>
<polygon fill="black" stroke="black" points="58.89,-11.61 49.66,-16.82 60.12,-18.51 58.89,-11.61"/>
<text text-anchor="middle" x="214.38" y="-16.57" font-family="Times New Roman,serif" font-size="14.00">y</text>
</g>
<!-- &#45;&gt; -->
<g id="edge11" class="edge">
<title>&#45;&gt;</title>
<path fill="none" stroke="black" d="M48.46,-27.29C119.35,-41.81 229,-40.05 229,-22 229,-4.83 129.8,-2.4 59.11,-14.7"/>
<polygon fill="black" stroke="black" points="58.64,-11.42 49.46,-16.71 59.94,-18.3 58.64,-11.42"/>
<text text-anchor="middle" x="232.38" y="-16.57" font-family="Times New Roman,serif" font-size="14.00">u</text>
</g>
<!-- &#45;&gt; -->
<g id="edge12" class="edge">
<title>&#45;&gt;</title>
<path fill="none" stroke="black" d="M48.38,-27.4C125.5,-43.82 247,-42.02 247,-22 247,-2.88 136.17,-0.38 59.03,-14.5"/>
<polygon fill="black" stroke="black" points="58.51,-11.23 49.38,-16.6 59.87,-18.1 58.51,-11.23"/>
<text text-anchor="middle" x="250.38" y="-16.57" font-family="Times New Roman,serif" font-size="14.00">k</text>
</g>
<!-- &#45;&gt; -->
<g id="edge13" class="edge">
<title>&#45;&gt;</title>
<path fill="none" stroke="black" d="M48.53,-27.54C131.87,-45.83 265,-43.98 265,-22 265,-0.94 142.81,1.64 59.27,-14.26"/>
<polygon fill="black" stroke="black" points="58.62,-11.03 49.53,-16.46 60.02,-17.89 58.62,-11.03"/>
<text text-anchor="middle" x="268" y="-16.57" font-family="Times New Roman,serif" font-size="14.00">?</text>
</g>
<!-- &#45;&gt; -->
<g id="edge14" class="edge">
<title>&#45;&gt;</title>
<path fill="none" stroke="black" d="M48.73,-27.68C138.27,-47.84 283,-45.94 283,-22 283,1.01 149.35,3.66 59.46,-14.06"/>
<polygon fill="black" stroke="black" points="58.79,-10.83 49.73,-16.32 60.23,-17.68 58.79,-10.83"/>
<text text-anchor="middle" x="286.75" y="-16.57" font-family="Times New Roman,serif" font-size="14.00">p</text>
</g>
</g>
</svg>
