<?xml version="1.0" encoding="UTF-8" standalone="no"?>
<!DOCTYPE svg PUBLIC "-//W3C//DTD SVG 1.1//EN"
 "http://www.w3.org/Graphics/SVG/1.1/DTD/svg11.dtd">
<!-- Generated by graphviz version 8.1.0 (20230707.0739)
 -->
<!-- Pages: 1 -->
<svg width="107pt" height="125pt"
 viewBox="0.00 0.00 106.50 125.00" xmlns="http://www.w3.org/2000/svg" xmlns:xlink="http://www.w3.org/1999/xlink">
<g id="graph0" class="graph" transform="scale(1 1) rotate(0) translate(4 121)">
<polygon fill="white" stroke="none" points="-4,4 -4,-121 102.5,-121 102.5,4 -4,4"/>
<!-- fake -->
<g id="node1" class="node">
<title>fake</title>
</g>
<g id="node2" class="node">
<title></title>
<ellipse fill="none" stroke="black" cx="27" cy="-22" rx="18" ry="18"/>
<ellipse fill="none" stroke="black" cx="27" cy="-22" rx="22" ry="22"/>
</g>
<!-- fake&#45;&gt; -->
<g id="edge1" class="edge">
<title>fake&#45;&gt;</title>
<path fill="none" stroke="black" stroke-width="2" d="M27,-80.6C27,-73 27,-63.82 27,-55.06"/>
<polygon fill="black" stroke="black" stroke-width="2" points="30.5,-57.32 27,-47.32 23.5,-57.32 30.5,-57.32"/>
</g>
<!-- &#45;&gt; -->
<g id="edge2" class="edge">
<title>&#45;&gt;</title>
<path fill="none" stroke="black" d="M48.81,-25.74C58.56,-26.09 67,-24.85 67,-22 67,-20.31 64.03,-19.18 59.57,-18.62"/>
<polygon fill="black" stroke="black" points="59.92,-15.1 49.81,-18.26 59.68,-22.09 59.92,-15.1"/>
<text text-anchor="middle" x="70.75" y="-16.57" font-family="Times New Roman,serif" font-size="14.00">b</text>
</g>
<!-- &#45;&gt; -->
<g id="edge3" class="edge">
<title>&#45;&gt;</title>
<path fill="none" stroke="black" d="M48.42,-28.44C66.31,-31.19 85,-29.04 85,-22 85,-16.39 73.13,-13.89 59.25,-14.5"/>
<polygon fill="black" stroke="black" points="59.02,-11.1 49.42,-15.56 59.71,-18.07 59.02,-11.1"/>
<text text-anchor="middle" x="88" y="-16.57" font-family="Times New Roman,serif" font-size="14.00">a</text>
</g>
</g>
</svg>
