<?xml version="1.0" encoding="UTF-8" standalone="no"?>
<!DOCTYPE svg PUBLIC "-//W3C//DTD SVG 1.1//EN"
 "http://www.w3.org/Graphics/SVG/1.1/DTD/svg11.dtd">
<!-- Generated by graphviz version 8.1.0 (20230707.0739)
 -->
<!-- Pages: 1 -->
<svg width="124pt" height="310pt"
 viewBox="0.00 0.00 124.00 309.76" xmlns="http://www.w3.org/2000/svg" xmlns:xlink="http://www.w3.org/1999/xlink">
<g id="graph0" class="graph" transform="scale(1 1) rotate(0) translate(4 305.76)">
<polygon fill="white" stroke="none" points="-4,4 -4,-305.76 120,-305.76 120,4 -4,4"/>
<!-- fake -->
<g id="node1" class="node">
<title>fake</title>
</g>
<g id="node2" class="node">
<title></title>
<ellipse fill="none" stroke="black" cx="37" cy="-210.76" rx="27" ry="18"/>
</g>
<!-- fake&#45;&gt; -->
<g id="edge1" class="edge">
<title>fake&#45;&gt;</title>
<path fill="none" stroke="black" stroke-width="2" d="M37,-265.57C37,-257.81 37,-248.44 37,-239.71"/>
<polygon fill="black" stroke="black" stroke-width="2" points="40.5,-241.79 37,-231.79 33.5,-241.79 40.5,-241.79"/>
</g>
<!-- b -->
<g id="node4" class="node">
<title>b</title>
<ellipse fill="none" stroke="black" cx="22" cy="-119.01" rx="18" ry="18"/>
<ellipse fill="none" stroke="black" cx="22" cy="-119.01" rx="22" ry="22"/>
<text text-anchor="middle" x="22" y="-113.58" font-family="Times New Roman,serif" font-size="14.00">b</text>
</g>
<!-- &#45;&gt;b -->
<g id="edge2" class="edge">
<title>&#45;&gt;b</title>
<path fill="none" stroke="black" d="M34.11,-192.45C32.17,-180.88 29.57,-165.31 27.27,-151.57"/>
<polygon fill="black" stroke="black" points="30.62,-151.34 25.52,-142.05 23.71,-152.49 30.62,-151.34"/>
<text text-anchor="middle" x="34.75" y="-161.46" font-family="Times New Roman,serif" font-size="14.00">b</text>
</g>
<!-- a -->
<g id="node5" class="node">
<title>a</title>
<ellipse fill="none" stroke="black" cx="89" cy="-119.01" rx="27" ry="18"/>
<text text-anchor="middle" x="89" y="-113.58" font-family="Times New Roman,serif" font-size="14.00">a</text>
</g>
<!-- &#45;&gt;a -->
<g id="edge3" class="edge">
<title>&#45;&gt;a</title>
<path fill="none" stroke="black" d="M46.3,-193.71C54.09,-180.27 65.35,-160.84 74.35,-145.3"/>
<polygon fill="black" stroke="black" points="77.62,-147.62 79.61,-137.22 71.57,-144.12 77.62,-147.62"/>
<text text-anchor="middle" x="70" y="-161.46" font-family="Times New Roman,serif" font-size="14.00">a</text>
</g>
<!-- aa -->
<g id="node3" class="node">
<title>aa</title>
<ellipse fill="none" stroke="black" cx="88" cy="-22.63" rx="18.63" ry="18.63"/>
<ellipse fill="none" stroke="black" cx="88" cy="-22.63" rx="22.63" ry="22.63"/>
<text text-anchor="middle" x="88" y="-17.2" font-family="Times New Roman,serif" font-size="14.00">aa</text>
</g>
<!-- aa&#45;&gt;a -->
<g id="edge5" class="edge">
<title>aa&#45;&gt;a</title>
<path fill="none" stroke="black" d="M88.23,-45.48C88.37,-58.73 88.55,-75.78 88.7,-90.01"/>
<polygon fill="black" stroke="black" points="85.21,-89.74 88.82,-99.7 92.21,-89.66 85.21,-89.74"/>
<text text-anchor="middle" x="92" y="-65.71" font-family="Times New Roman,serif" font-size="14.00">a</text>
</g>
<!-- a&#45;&gt;aa -->
<g id="edge4" class="edge">
<title>a&#45;&gt;aa</title>
<path fill="none" stroke="black" d="M83.15,-101.14C81.08,-94.35 79.02,-86.4 78,-79.01 76.93,-71.25 77.51,-62.91 78.81,-55.13"/>
<polygon fill="black" stroke="black" points="82.39,-56.11 81.04,-45.6 75.54,-54.66 82.39,-56.11"/>
<text text-anchor="middle" x="81" y="-65.71" font-family="Times New Roman,serif" font-size="14.00">a</text>
</g>
</g>
</svg>
