<?xml version="1.0" encoding="UTF-8" standalone="no"?>
<!DOCTYPE svg PUBLIC "-//W3C//DTD SVG 1.1//EN"
 "http://www.w3.org/Graphics/SVG/1.1/DTD/svg11.dtd">
<!-- Generated by graphviz version 8.1.0 (20230707.0739)
 -->
<!-- Pages: 1 -->
<svg width="105pt" height="416pt"
 viewBox="0.00 0.00 104.95 416.45" xmlns="http://www.w3.org/2000/svg" xmlns:xlink="http://www.w3.org/1999/xlink">
<g id="graph0" class="graph" transform="scale(1 1) rotate(0) translate(4 412.45)">
<polygon fill="white" stroke="none" points="-4,4 -4,-412.45 100.95,-412.45 100.95,4 -4,4"/>
<!-- fake -->
<g id="node1" class="node">
<title>fake</title>
</g>
<g id="node2" class="node">
<title></title>
<ellipse fill="none" stroke="black" cx="36.1" cy="-317.45" rx="27" ry="18"/>
</g>
<!-- fake&#45;&gt; -->
<g id="edge1" class="edge">
<title>fake&#45;&gt;</title>
<path fill="none" stroke="black" stroke-width="2" d="M36.1,-372.27C36.1,-364.51 36.1,-355.14 36.1,-346.4"/>
<polygon fill="black" stroke="black" stroke-width="2" points="39.6,-348.48 36.1,-338.48 32.6,-348.48 39.6,-348.48"/>
</g>
<!-- a -->
<g id="node3" class="node">
<title>a</title>
<ellipse fill="none" stroke="black" cx="36.1" cy="-229.7" rx="27" ry="18"/>
<text text-anchor="middle" x="36.1" y="-224.28" font-family="Times New Roman,serif" font-size="14.00">a</text>
</g>
<!-- &#45;&gt;a -->
<g id="edge2" class="edge">
<title>&#45;&gt;a</title>
<path fill="none" stroke="black" d="M36.1,-299.1C36.1,-287.59 36.1,-272.23 36.1,-258.98"/>
<polygon fill="black" stroke="black" points="39.6,-259.03 36.1,-249.03 32.6,-259.03 39.6,-259.03"/>
<text text-anchor="middle" x="39.1" y="-268.15" font-family="Times New Roman,serif" font-size="14.00">a</text>
</g>
<!-- a&#45;&gt;a -->
<g id="edge3" class="edge">
<title>a&#45;&gt;a</title>
<path fill="none" stroke="black" d="M60.63,-237.8C71.61,-238.57 81.1,-235.87 81.1,-229.7 81.1,-225.75 77.21,-223.22 71.52,-222.12"/>
<polygon fill="black" stroke="black" points="71.79,-218.58 61.63,-221.61 71.46,-225.57 71.79,-218.58"/>
<text text-anchor="middle" x="84.1" y="-224.28" font-family="Times New Roman,serif" font-size="14.00">a</text>
</g>
<!-- aaab -->
<g id="node4" class="node">
<title>aaab</title>
<ellipse fill="none" stroke="black" cx="36.1" cy="-141.95" rx="27.61" ry="18"/>
<text text-anchor="middle" x="36.1" y="-136.53" font-family="Times New Roman,serif" font-size="14.00">aaab</text>
</g>
<!-- a&#45;&gt;aaab -->
<g id="edge4" class="edge">
<title>a&#45;&gt;aaab</title>
<path fill="none" stroke="black" d="M36.1,-211.35C36.1,-199.84 36.1,-184.48 36.1,-171.23"/>
<polygon fill="black" stroke="black" points="39.6,-171.28 36.1,-161.28 32.6,-171.28 39.6,-171.28"/>
<text text-anchor="middle" x="39.85" y="-180.4" font-family="Times New Roman,serif" font-size="14.00">b</text>
</g>
<!-- aaab&#45;&gt;aaab -->
<g id="edge7" class="edge">
<title>aaab&#45;&gt;aaab</title>
<path fill="none" stroke="black" d="M60.97,-150.05C72.09,-150.82 81.71,-148.12 81.71,-141.95 81.71,-137.91 77.57,-135.35 71.58,-134.29"/>
<polygon fill="black" stroke="black" points="72.1,-130.77 61.97,-133.86 71.82,-137.76 72.1,-130.77"/>
<text text-anchor="middle" x="85.46" y="-136.53" font-family="Times New Roman,serif" font-size="14.00">b</text>
</g>
<!-- aaabc -->
<g id="node5" class="node">
<title>aaabc</title>
<ellipse fill="none" stroke="black" cx="36.1" cy="-36.1" rx="32.1" ry="32.1"/>
<ellipse fill="none" stroke="black" cx="36.1" cy="-36.1" rx="36.1" ry="36.1"/>
<text text-anchor="middle" x="36.1" y="-30.68" font-family="Times New Roman,serif" font-size="14.00">aaabc</text>
</g>
<!-- aaab&#45;&gt;aaabc -->
<g id="edge5" class="edge">
<title>aaab&#45;&gt;aaabc</title>
<path fill="none" stroke="black" d="M36.1,-123.81C36.1,-112.7 36.1,-97.65 36.1,-83.22"/>
<polygon fill="black" stroke="black" points="39.6,-83.37 36.1,-73.37 32.6,-83.37 39.6,-83.37"/>
<text text-anchor="middle" x="39.48" y="-92.65" font-family="Times New Roman,serif" font-size="14.00">c</text>
</g>
<!-- aaabc&#45;&gt;aaabc -->
<g id="edge6" class="edge">
<title>aaabc&#45;&gt;aaabc</title>
<path fill="none" stroke="black" d="M70.7,-47.72C81.6,-47.54 90.2,-43.67 90.2,-36.1 90.2,-31.26 86.67,-27.92 81.27,-26.11"/>
<polygon fill="black" stroke="black" points="82.12,-22.55 71.7,-24.49 81.06,-29.46 82.12,-22.55"/>
<text text-anchor="middle" x="93.58" y="-30.68" font-family="Times New Roman,serif" font-size="14.00">c</text>
</g>
</g>
</svg>
