<?xml version="1.0" encoding="UTF-8" standalone="no"?>
<!DOCTYPE svg PUBLIC "-//W3C//DTD SVG 1.1//EN"
 "http://www.w3.org/Graphics/SVG/1.1/DTD/svg11.dtd">
<!-- Generated by graphviz version 8.1.0 (20230707.0739)
 -->
<!-- Pages: 1 -->
<svg width="415pt" height="213pt"
 viewBox="0.00 0.00 415.26 212.75" xmlns="http://www.w3.org/2000/svg" xmlns:xlink="http://www.w3.org/1999/xlink">
<g id="graph0" class="graph" transform="scale(1 1) rotate(0) translate(4 208.75)">
<polygon fill="white" stroke="none" points="-4,4 -4,-208.75 411.26,-208.75 411.26,4 -4,4"/>
<!-- fake -->
<g id="node1" class="node">
<title>fake</title>
</g>
<g id="node2" class="node">
<title></title>
<ellipse fill="none" stroke="black" cx="137.76" cy="-113.75" rx="27" ry="18"/>
</g>
<!-- fake&#45;&gt; -->
<g id="edge1" class="edge">
<title>fake&#45;&gt;</title>
<path fill="none" stroke="black" stroke-width="2" d="M137.76,-168.56C137.76,-160.8 137.76,-151.43 137.76,-142.7"/>
<polygon fill="black" stroke="black" stroke-width="2" points="141.26,-144.78 137.76,-134.78 134.26,-144.78 141.26,-144.78"/>
</g>
<!-- 0 -->
<g id="node3" class="node">
<title>0</title>
<ellipse fill="none" stroke="black" cx="137.76" cy="-22" rx="18" ry="18"/>
<ellipse fill="none" stroke="black" cx="137.76" cy="-22" rx="22" ry="22"/>
<text text-anchor="middle" x="137.76" y="-16.57" font-family="Times New Roman,serif" font-size="14.00">0</text>
</g>
<!-- &#45;&gt;0 -->
<g id="edge2" class="edge">
<title>&#45;&gt;0</title>
<path fill="none" stroke="black" d="M111.22,-109.51C76.55,-104.67 18.74,-94.31 6.01,-77.75 -21.6,-41.85 57.44,-29.3 104.87,-25.06"/>
<polygon fill="black" stroke="black" points="104.91,-28.49 114.6,-24.2 104.35,-21.51 104.91,-28.49"/>
<text text-anchor="middle" x="10.14" y="-64.45" font-family="Times New Roman,serif" font-size="14.00">1</text>
</g>
<!-- &#45;&gt;0 -->
<g id="edge3" class="edge">
<title>&#45;&gt;0</title>
<path fill="none" stroke="black" d="M110.6,-111.71C86.58,-109.18 52.83,-101.32 36.01,-77.75 16.11,-49.86 68.08,-34.81 104.86,-27.89"/>
<polygon fill="black" stroke="black" points="105.44,-31.16 114.69,-25.99 104.24,-24.27 105.44,-31.16"/>
<text text-anchor="middle" x="40.14" y="-64.45" font-family="Times New Roman,serif" font-size="14.00">8</text>
</g>
<!-- &#45;&gt;0 -->
<g id="edge4" class="edge">
<title>&#45;&gt;0</title>
<path fill="none" stroke="black" d="M112.19,-107.53C95.92,-102.74 76.07,-93.85 66.01,-77.75 53.3,-57.4 81.47,-41.81 106.16,-32.56"/>
<polygon fill="black" stroke="black" points="107.1,-35.59 115.4,-28.99 104.8,-28.98 107.1,-35.59"/>
<text text-anchor="middle" x="70.14" y="-64.45" font-family="Times New Roman,serif" font-size="14.00">3</text>
</g>
<!-- &#45;&gt;0 -->
<g id="edge5" class="edge">
<title>&#45;&gt;0</title>
<path fill="none" stroke="black" d="M117.87,-101.35C104.09,-91.83 89.33,-77.38 96.01,-62 99.33,-54.37 104.95,-47.55 111.02,-41.83"/>
<polygon fill="black" stroke="black" points="113.02,-43.88 118.38,-34.75 108.49,-38.54 113.02,-43.88"/>
<text text-anchor="middle" x="100.14" y="-64.45" font-family="Times New Roman,serif" font-size="14.00">9</text>
</g>
<!-- &#45;&gt;0 -->
<g id="edge6" class="edge">
<title>&#45;&gt;0</title>
<path fill="none" stroke="black" d="M130.89,-95.94C128.91,-90.26 127,-83.82 126.01,-77.75 124.72,-69.86 125.48,-61.39 127.09,-53.52"/>
<polygon fill="black" stroke="black" points="130.71,-54.49 129.82,-43.93 123.94,-52.74 130.71,-54.49"/>
<text text-anchor="middle" x="130.14" y="-64.45" font-family="Times New Roman,serif" font-size="14.00">4</text>
</g>
<!-- &#45;&gt;0 -->
<g id="edge7" class="edge">
<title>&#45;&gt;0</title>
<path fill="none" stroke="black" d="M137.76,-95.45C137.76,-84.06 137.76,-68.82 137.76,-55.25"/>
<polygon fill="black" stroke="black" points="141.26,-55.37 137.76,-45.37 134.26,-55.37 141.26,-55.37"/>
<text text-anchor="middle" x="141.14" y="-64.45" font-family="Times New Roman,serif" font-size="14.00">2</text>
</g>
<!-- &#45;&gt;0 -->
<g id="edge8" class="edge">
<title>&#45;&gt;0</title>
<path fill="none" stroke="black" d="M144.2,-95.91C146.06,-90.23 147.84,-83.79 148.76,-77.75 149.96,-69.93 149.28,-61.54 147.8,-53.73"/>
<polygon fill="black" stroke="black" points="151.01,-53.11 145.27,-44.2 144.2,-54.74 151.01,-53.11"/>
<text text-anchor="middle" x="152.14" y="-64.45" font-family="Times New Roman,serif" font-size="14.00">7</text>
</g>
<!-- &#45;&gt;0 -->
<g id="edge9" class="edge">
<title>&#45;&gt;0</title>
<path fill="none" stroke="black" d="M150.1,-97.28C153.98,-91.5 157.78,-84.65 159.76,-77.75 162.48,-68.31 160.08,-58.26 156.01,-49.38"/>
<polygon fill="black" stroke="black" points="158.73,-48.06 150.88,-40.95 152.58,-51.41 158.73,-48.06"/>
<text text-anchor="middle" x="164.14" y="-64.45" font-family="Times New Roman,serif" font-size="14.00">6</text>
</g>
<!-- &#45;&gt;0 -->
<g id="edge10" class="edge">
<title>&#45;&gt;0</title>
<path fill="none" stroke="black" d="M155.27,-99.68C161.73,-93.78 168.32,-86.23 171.76,-77.75 174.39,-71.26 174.22,-68.55 171.76,-62 169.46,-55.86 165.71,-50.04 161.51,-44.87"/>
<polygon fill="black" stroke="black" points="164.53,-42.89 155.22,-37.84 159.35,-47.59 164.53,-42.89"/>
<text text-anchor="middle" x="176.14" y="-64.45" font-family="Times New Roman,serif" font-size="14.00">5</text>
</g>
<!-- &#45;&gt;0 -->
<g id="edge11" class="edge">
<title>&#45;&gt;0</title>
<path fill="none" stroke="black" d="M158.75,-102.18C174.18,-92.83 191.26,-78.19 183.76,-62 179.71,-53.26 172.63,-45.76 165.23,-39.75"/>
<polygon fill="black" stroke="black" points="167.67,-36.47 157.54,-33.38 163.53,-42.11 167.67,-36.47"/>
<text text-anchor="middle" x="188.14" y="-64.45" font-family="Times New Roman,serif" font-size="14.00">0</text>
</g>
<!-- 0&#45;&gt;0 -->
<g id="edge12" class="edge">
<title>0&#45;&gt;0</title>
<path fill="none" stroke="black" d="M159.98,-23.48C169.56,-23.6 177.76,-23.11 177.76,-22 177.76,-21.36 175.02,-20.92 170.86,-20.69"/>
<polygon fill="black" stroke="black" points="171.03,-17.18 160.98,-20.52 170.92,-24.18 171.03,-17.18"/>
<text text-anchor="middle" x="181.14" y="-16.57" font-family="Times New Roman,serif" font-size="14.00">1</text>
</g>
<!-- 0&#45;&gt;0 -->
<g id="edge13" class="edge">
<title>0&#45;&gt;0</title>
<path fill="none" stroke="black" d="M160.08,-24.6C177.69,-25.6 195.76,-24.73 195.76,-22 195.76,-19.82 184.29,-18.83 170.72,-19.02"/>
<polygon fill="black" stroke="black" points="170.95,-15.55 161.08,-19.4 171.2,-22.54 170.95,-15.55"/>
<text text-anchor="middle" x="199.14" y="-16.57" font-family="Times New Roman,serif" font-size="14.00">8</text>
</g>
<!-- 0&#45;&gt;0 -->
<g id="edge14" class="edge">
<title>0&#45;&gt;0</title>
<path fill="none" stroke="black" d="M159.94,-25.34C184.97,-27.64 213.76,-26.52 213.76,-22 213.76,-18.11 192.49,-16.74 170.63,-17.89"/>
<polygon fill="black" stroke="black" points="170.66,-14.45 160.94,-18.66 171.16,-21.44 170.66,-14.45"/>
<text text-anchor="middle" x="217.14" y="-16.57" font-family="Times New Roman,serif" font-size="14.00">3</text>
</g>
<!-- 0&#45;&gt;0 -->
<g id="edge15" class="edge">
<title>0&#45;&gt;0</title>
<path fill="none" stroke="black" d="M159.48,-25.83C191.58,-29.68 231.76,-28.41 231.76,-22 231.76,-16.29 199.89,-14.66 170.24,-17.09"/>
<polygon fill="black" stroke="black" points="170.08,-13.69 160.48,-18.17 170.78,-20.65 170.08,-13.69"/>
<text text-anchor="middle" x="235.14" y="-16.57" font-family="Times New Roman,serif" font-size="14.00">9</text>
</g>
<!-- 0&#45;&gt;0 -->
<g id="edge16" class="edge">
<title>0&#45;&gt;0</title>
<path fill="none" stroke="black" d="M159.75,-26.27C198.56,-31.7 249.76,-30.28 249.76,-22 249.76,-14.46 207.34,-12.61 170.47,-16.43"/>
<polygon fill="black" stroke="black" points="170.26,-13.05 160.75,-17.73 171.1,-20 170.26,-13.05"/>
<text text-anchor="middle" x="253.14" y="-16.57" font-family="Times New Roman,serif" font-size="14.00">4</text>
</g>
<!-- 0&#45;&gt;0 -->
<g id="edge17" class="edge">
<title>0&#45;&gt;0</title>
<path fill="none" stroke="black" d="M159.5,-26.55C204.92,-33.74 267.76,-32.22 267.76,-22 267.76,-12.56 214.13,-10.55 170.15,-15.96"/>
<polygon fill="black" stroke="black" points="169.92,-12.6 160.5,-17.45 170.89,-19.53 169.92,-12.6"/>
<text text-anchor="middle" x="271.14" y="-16.57" font-family="Times New Roman,serif" font-size="14.00">2</text>
</g>
<!-- 0&#45;&gt;0 -->
<g id="edge18" class="edge">
<title>0&#45;&gt;0</title>
<path fill="none" stroke="black" d="M159.68,-26.84C211.56,-35.75 285.76,-34.14 285.76,-22 285.76,-10.67 221.09,-8.51 170.29,-15.53"/>
<polygon fill="black" stroke="black" points="170.03,-12.18 160.68,-17.16 171.1,-19.1 170.03,-12.18"/>
<text text-anchor="middle" x="289.14" y="-16.57" font-family="Times New Roman,serif" font-size="14.00">7</text>
</g>
<!-- 0&#45;&gt;0 -->
<g id="edge19" class="edge">
<title>0&#45;&gt;0</title>
<path fill="none" stroke="black" d="M159.62,-27.04C217.9,-37.77 303.76,-36.09 303.76,-22 303.76,-8.73 227.66,-6.47 170.12,-15.2"/>
<polygon fill="black" stroke="black" points="169.9,-11.86 160.62,-16.96 171.06,-18.76 169.9,-11.86"/>
<text text-anchor="middle" x="307.14" y="-16.57" font-family="Times New Roman,serif" font-size="14.00">6</text>
</g>
<!-- 0&#45;&gt;0 -->
<g id="edge20" class="edge">
<title>0&#45;&gt;0</title>
<path fill="none" stroke="black" d="M159.42,-27.18C224.03,-39.79 321.76,-38.07 321.76,-22 321.76,-6.78 234.07,-4.43 169.9,-14.95"/>
<polygon fill="black" stroke="black" points="169.65,-11.61 160.42,-16.82 170.88,-18.51 169.65,-11.61"/>
<text text-anchor="middle" x="325.14" y="-16.57" font-family="Times New Roman,serif" font-size="14.00">5</text>
</g>
<!-- 0&#45;&gt;0 -->
<g id="edge21" class="edge">
<title>0&#45;&gt;0</title>
<path fill="none" stroke="black" d="M159.23,-27.29C230.11,-41.81 339.76,-40.05 339.76,-22 339.76,-4.83 240.56,-2.4 169.87,-14.7"/>
<polygon fill="black" stroke="black" points="169.4,-11.42 160.23,-16.71 170.7,-18.3 169.4,-11.42"/>
<text text-anchor="middle" x="343.14" y="-16.57" font-family="Times New Roman,serif" font-size="14.00">0</text>
</g>
</g>
</svg>
