<?xml version="1.0" encoding="UTF-8" standalone="no"?>
<!DOCTYPE svg PUBLIC "-//W3C//DTD SVG 1.1//EN"
 "http://www.w3.org/Graphics/SVG/1.1/DTD/svg11.dtd">
<!-- Generated by graphviz version 8.1.0 (20230707.0739)
 -->
<!-- Pages: 1 -->
<svg width="82pt" height="214pt"
 viewBox="0.00 0.00 81.63 214.01" xmlns="http://www.w3.org/2000/svg" xmlns:xlink="http://www.w3.org/1999/xlink">
<g id="graph0" class="graph" transform="scale(1 1) rotate(0) translate(4 210.01)">
<polygon fill="white" stroke="none" points="-4,4 -4,-210.01 77.63,-210.01 77.63,4 -4,4"/>
<!-- fake -->
<g id="node1" class="node">
<title>fake</title>
</g>
<g id="node2" class="node">
<title></title>
<ellipse fill="none" stroke="black" cx="27" cy="-115.01" rx="27" ry="18"/>
</g>
<!-- fake&#45;&gt; -->
<g id="edge1" class="edge">
<title>fake&#45;&gt;</title>
<path fill="none" stroke="black" stroke-width="2" d="M27,-169.82C27,-162.06 27,-152.69 27,-143.96"/>
<polygon fill="black" stroke="black" stroke-width="2" points="30.5,-146.04 27,-136.04 23.5,-146.04 30.5,-146.04"/>
</g>
<!-- aa -->
<g id="node3" class="node">
<title>aa</title>
<ellipse fill="none" stroke="black" cx="27" cy="-22.63" rx="18.63" ry="18.63"/>
<ellipse fill="none" stroke="black" cx="27" cy="-22.63" rx="22.63" ry="22.63"/>
<text text-anchor="middle" x="27" y="-17.2" font-family="Times New Roman,serif" font-size="14.00">aa</text>
</g>
<!-- &#45;&gt;aa -->
<g id="edge2" class="edge">
<title>&#45;&gt;aa</title>
<path fill="none" stroke="black" d="M27,-96.58C27,-85.2 27,-69.98 27,-56.39"/>
<polygon fill="black" stroke="black" points="30.5,-56.48 27,-46.48 23.5,-56.48 30.5,-56.48"/>
<text text-anchor="middle" x="30" y="-65.71" font-family="Times New Roman,serif" font-size="14.00">a</text>
</g>
<!-- aa&#45;&gt;aa -->
<g id="edge3" class="edge">
<title>aa&#45;&gt;aa</title>
<path fill="none" stroke="black" d="M48.32,-31.5C58.58,-32.6 67.63,-29.64 67.63,-22.63 67.63,-18.25 64.09,-15.45 58.94,-14.23"/>
<polygon fill="black" stroke="black" points="59.47,-10.71 49.32,-13.76 59.15,-17.7 59.47,-10.71"/>
<text text-anchor="middle" x="70.63" y="-17.2" font-family="Times New Roman,serif" font-size="14.00">a</text>
</g>
</g>
</svg>
